<svg width="26" height="41" viewBox="0 0 26 41" fill="none" xmlns="http://www.w3.org/2000/svg">
<path fill-rule="evenodd" clip-rule="evenodd" d="M12.6935 12.7166C13.2684 13.48 14.2947 14.0398 15.9959 13.8144C18.9828 13.4188 21.2942 14.3054 22.681 16.0037C24.0335 17.6602 24.3441 19.8967 23.7617 21.9024C23.1731 23.9291 21.6597 25.7869 19.2819 26.7181C16.9075 27.6479 13.8176 27.6011 10.1274 26.1348C6.92187 24.861 5.07843 25.0675 4.08635 25.6416C3.11844 26.2018 2.55157 27.3562 2.49202 28.9893C2.43302 30.6072 2.8974 32.4501 3.69576 33.9397C4.52215 35.4817 5.53482 36.3462 6.37988 36.5141L5.89007 38.9259C3.95015 38.5405 2.45234 36.872 1.49831 35.0919C0.516245 33.2596 -0.0697409 30.9917 0.0065152 28.9006C0.0822147 26.8248 0.836226 24.6724 2.83037 23.5184C4.80034 22.3783 7.56013 22.4635 11.0546 23.8521C14.3268 25.1524 16.7373 25.0687 18.3663 24.4308C19.9919 23.7942 20.985 22.5534 21.3712 21.2233C21.7635 19.8721 21.517 18.4935 20.7461 17.5494C20.0093 16.6471 18.6306 15.9474 16.326 16.2527C13.8496 16.5807 11.8821 15.7571 10.699 14.1861C9.55805 12.6712 9.2799 10.6388 9.72796 8.73692C10.1805 6.81598 11.3896 4.93346 13.3653 3.65515C15.3507 2.37063 18.0297 1.74614 21.3427 2.19493L21.0052 4.63217C18.1911 4.25097 16.1357 4.80231 14.7268 5.71383C13.3084 6.63157 12.4635 7.9653 12.1502 9.2952C11.8324 10.6442 12.0764 11.8972 12.6935 12.7166Z" fill="black"/>
<path fill-rule="evenodd" clip-rule="evenodd" d="M21.1516 3.576C20.7702 3.52434 20.4 3.48842 20.0409 3.46723L20.0606 3.13982C20.4284 3.16152 20.8071 3.19827 21.1965 3.25104L21.1516 3.576ZM17.8136 3.53277C17.028 3.6321 16.3124 3.81159 15.6655 4.05496L15.5476 3.7484C16.2199 3.49544 16.9611 3.30989 17.7716 3.20742L17.8136 3.53277ZM13.7331 5.10217C13.1196 5.55898 12.6088 6.08734 12.1988 6.65731L11.9286 6.46717C12.358 5.87026 12.8925 5.31752 13.5337 4.84012L13.7331 5.10217ZM11.2238 8.60342C10.9992 9.3225 10.906 10.0533 10.9406 10.75L10.6093 10.7661C10.5728 10.0297 10.6715 9.26074 10.907 8.50663L11.2238 8.60342ZM11.492 12.8242C11.8309 13.4573 12.3222 13.9885 12.9622 14.3588L12.7947 14.6419C12.0975 14.2385 11.5645 13.6605 11.1989 12.9777L11.492 12.8242ZM16.1391 14.871C16.5935 14.8108 17.0257 14.7837 17.4355 14.7868L17.433 15.1148C17.0397 15.1118 16.6231 15.1378 16.1831 15.1961C15.7749 15.2501 15.3875 15.2682 15.0213 15.2533L15.0349 14.9256C15.3805 14.9396 15.7486 14.9227 16.1391 14.871ZM19.9705 15.2791C20.8323 15.6483 21.5084 16.2044 21.9983 16.8749L21.7295 17.067C21.2744 16.4441 20.6455 15.9257 19.8387 15.58L19.9705 15.2791ZM22.9239 19.27C23.0251 20.1077 22.9365 20.982 22.661 21.8175L22.3457 21.7158C22.6067 20.9243 22.69 20.0979 22.5946 19.3089L22.9239 19.27ZM7.20736 24.2109C6.33596 24.0883 5.58111 24.1008 4.93205 24.2214L4.8708 23.8991C5.56159 23.7707 6.35352 23.7594 7.25406 23.8861L7.20736 24.2109ZM21.3674 24.0349C20.8158 24.6431 20.1228 25.1661 19.2907 25.5534L19.1495 25.2567C19.9412 24.8882 20.5984 24.3917 21.1206 23.8159L21.3674 24.0349ZM10.5293 25.1456C10.1521 24.9957 9.7887 24.8638 9.43868 24.7488L9.54318 24.4375C9.90006 24.5547 10.2699 24.689 10.6529 24.8412C11.0579 25.0021 11.4525 25.1438 11.837 25.2673L11.7345 25.5793C11.3427 25.4534 10.9409 25.3091 10.5293 25.1456ZM2.93435 25.1597C2.38474 25.6473 1.99539 26.2847 1.74748 27.019L1.43294 26.9151C1.69562 26.1371 2.11307 25.4477 2.71294 24.9155L2.93435 25.1597ZM16.8034 26.2229C16.0168 26.3056 15.1577 26.2915 14.2272 26.1616L14.2735 25.8368C15.1794 25.9632 16.0111 25.9763 16.7684 25.8967L16.8034 26.2229ZM1.40942 29.239C1.40705 29.9751 1.49594 30.7396 1.6624 31.4947L1.3384 31.5645C1.16736 30.7887 1.07535 30.0004 1.07781 29.2379L1.40942 29.239ZM2.36593 33.6599C2.6821 34.3833 3.06537 35.0533 3.49875 35.6286L3.23285 35.8245C2.78218 35.2264 2.38656 34.5337 2.06154 33.79L2.36593 33.6599ZM5.13946 37.1578C5.47308 37.3529 5.81718 37.4895 6.16776 37.5592L6.10245 37.8808C5.71062 37.8029 5.33183 37.6514 4.97068 37.4402L5.13946 37.1578Z" fill="white"/>
<path d="M9.53387 38.13C9.53387 39.7151 8.23476 41 6.63223 41C5.0297 41 3.73059 39.7151 3.73059 38.13C3.73059 36.5449 5.0297 35.26 6.63223 35.26C8.23476 35.26 9.53387 36.5449 9.53387 38.13Z" fill="#C4C4C4"/>
<path d="M7.87579 38.13C7.87579 38.8093 7.31903 39.36 6.63223 39.36C5.94543 39.36 5.38867 38.8093 5.38867 38.13C5.38867 37.4507 5.94543 36.9 6.63223 36.9C7.31903 36.9 7.87579 37.4507 7.87579 38.13Z" fill="white"/>
<path d="M25.2857 2.87C25.2857 4.45506 23.9866 5.74 22.3841 5.74C20.7815 5.74 19.4824 4.45506 19.4824 2.87C19.4824 1.28494 20.7815 0 22.3841 0C23.9866 0 25.2857 1.28494 25.2857 2.87Z" fill="#C4C4C4"/>
<path d="M23.6276 2.87C23.6276 3.54931 23.0709 4.1 22.3841 4.1C21.6973 4.1 21.1405 3.54931 21.1405 2.87C21.1405 2.19069 21.6973 1.64 22.3841 1.64C23.0709 1.64 23.6276 2.19069 23.6276 2.87Z" fill="white"/>
</svg>
