<svg width="45" height="73" viewBox="0 0 45 73" fill="none" xmlns="http://www.w3.org/2000/svg">
<path fill-rule="evenodd" clip-rule="evenodd" d="M22.937 23.1797C23.9308 24.5139 25.705 25.4922 28.6457 25.0984C33.8091 24.407 37.8047 25.9565 40.202 28.9247C42.5402 31.8197 43.077 35.7285 42.0702 39.2339C41.0528 42.7762 38.4365 46.0231 34.3261 47.6505C30.2215 49.2756 24.8802 49.1938 18.501 46.631C12.9597 44.4048 9.77303 44.7658 8.05805 45.7692C6.38485 46.7481 5.40494 48.7658 5.30199 51.62C5.2 54.4475 6.00275 57.6686 7.38285 60.272C8.81142 62.9668 10.562 64.4778 12.0228 64.7713L11.1761 68.9865C7.82262 68.3129 5.23339 65.3967 3.58419 62.2857C1.88652 59.0832 0.873549 55.1196 1.00537 51.465C1.13623 47.8371 2.43967 44.0751 5.88688 42.0582C9.29231 40.0658 14.0631 40.2147 20.1038 42.6415C25.7605 44.9141 29.9274 44.7679 32.7434 43.653C35.5536 42.5404 37.2702 40.3717 37.9378 38.0471C38.6161 35.6856 38.19 33.2762 36.8572 31.6261C35.5836 30.0491 33.2002 28.8263 29.2164 29.3598C24.9356 29.9331 21.5343 28.4938 19.4891 25.7481C17.5168 23.1004 17.036 19.5482 17.8105 16.2243C18.5929 12.8671 20.6829 9.57692 24.0984 7.34279C27.5304 5.09779 32.1615 4.00635 37.8885 4.79071L37.3051 9.05035C32.4406 8.38411 28.8874 9.34771 26.4519 10.9408C23.9999 12.5448 22.5394 14.8757 21.9978 17.2C21.4484 19.5577 21.8702 21.7475 22.937 23.1797Z" fill="black"/>
<path fill-rule="evenodd" clip-rule="evenodd" d="M37.5579 7.2045C36.8986 7.11421 36.2586 7.05143 35.6379 7.01441L35.672 6.44217C36.3078 6.48009 36.9624 6.54434 37.6357 6.63655L37.5579 7.2045ZM31.7877 7.12895C30.4296 7.30255 29.1926 7.61624 28.0744 8.0416L27.8706 7.5058C29.0328 7.0637 30.314 6.73941 31.715 6.56032L31.7877 7.12895ZM24.7339 9.87182C23.6734 10.6702 22.7903 11.5936 22.0816 12.5898L21.6145 12.2575C22.3567 11.2142 23.2808 10.2482 24.3891 9.41383L24.7339 9.87182ZM20.3961 15.9911C20.0079 17.2478 19.8467 18.525 19.9065 19.7428L19.3339 19.7709C19.2707 18.4838 19.4413 17.1399 19.8484 15.8219L20.3961 15.9911ZM20.8596 23.3678C21.4456 24.4743 22.2948 25.4027 23.4011 26.0499L23.1117 26.5447C21.9064 25.8396 20.985 24.8295 20.353 23.6361L20.8596 23.3678ZM28.893 26.945C29.6786 26.8398 30.4256 26.7924 31.1341 26.7979L31.1297 27.3711C30.4499 27.3659 29.7297 27.4114 28.969 27.5132C28.2634 27.6077 27.5938 27.6393 26.9608 27.6133L26.9843 27.0405C27.5817 27.065 28.218 27.0354 28.893 26.945ZM35.5163 27.6583C37.0061 28.3036 38.1748 29.2755 39.0216 30.4473L38.5569 30.7831C37.7702 29.6944 36.6832 28.7885 35.2884 28.1843L35.5163 27.6583ZM40.6217 34.6333C40.7967 36.0974 40.6434 37.6255 40.1672 39.0857L39.6222 38.9079C40.0733 37.5246 40.2173 36.0803 40.0525 34.7014L40.6217 34.6333ZM13.453 43.2686C11.9466 43.0544 10.6417 43.0762 9.51973 43.2871L9.41384 42.7237C10.608 42.4993 11.977 42.4797 13.5337 42.7011L13.453 43.2686ZM37.9311 42.9611C36.9776 44.0241 35.7796 44.9382 34.3411 45.6151L34.0971 45.0964C35.4656 44.4524 36.6016 43.5846 37.5043 42.5783L37.9311 42.9611ZM19.1955 44.9023C18.5435 44.6403 17.9153 44.4097 17.3102 44.2088L17.4909 43.6647C18.1078 43.8696 18.7471 44.1043 19.4092 44.3703C20.1092 44.6515 20.7915 44.8992 21.456 45.115L21.2789 45.6602C20.6016 45.4402 19.9071 45.1881 19.1955 44.9023ZM6.06637 44.927C5.11627 45.7791 4.44322 46.8931 4.01467 48.1765L3.47093 47.9949C3.92501 46.6351 4.64665 45.4302 5.68362 44.5002L6.06637 44.927ZM30.0415 46.7851C28.6817 46.9296 27.1966 46.9049 25.5879 46.678L25.668 46.1104C27.234 46.3313 28.6717 46.3542 29.9809 46.2151L30.0415 46.7851ZM3.43027 52.0564C3.42617 53.3429 3.57983 54.679 3.86759 55.9987L3.30749 56.1208C3.01182 54.7648 2.85277 53.3871 2.85702 52.0546L3.43027 52.0564ZM5.08376 59.7829C5.63032 61.0472 6.29285 62.2183 7.04203 63.2236L6.58237 63.5662C5.80331 62.5207 5.11941 61.3101 4.55757 60.0104L5.08376 59.7829ZM9.87828 65.8964C10.455 66.2373 11.0498 66.4761 11.6559 66.5979L11.543 67.1599C10.8656 67.0238 10.2108 66.7589 9.58652 66.3898L9.87828 65.8964Z" fill="white"/>
<path d="M17.4748 67.5954C17.4748 70.3657 15.2291 72.6114 12.4588 72.6114C9.6886 72.6114 7.44287 70.3657 7.44287 67.5954C7.44287 64.8252 9.6886 62.5795 12.4588 62.5795C15.2291 62.5795 17.4748 64.8252 17.4748 67.5954Z" fill="#C4C4C4"/>
<path d="M14.6087 67.5954C14.6087 68.7827 13.6463 69.7451 12.459 69.7451C11.2718 69.7451 10.3093 68.7827 10.3093 67.5954C10.3093 66.4082 11.2718 65.4457 12.459 65.4457C13.6463 65.4457 14.6087 66.4082 14.6087 67.5954Z" fill="white"/>
<path d="M44.7046 5.97057C44.7046 8.74081 42.4588 10.9865 39.6886 10.9865C36.9183 10.9865 34.6726 8.74081 34.6726 5.97057C34.6726 3.20032 36.9183 0.95459 39.6886 0.95459C42.4588 0.95459 44.7046 3.20032 44.7046 5.97057Z" fill="#C4C4C4"/>
<path d="M41.8382 5.97057C41.8382 7.15782 40.8758 8.12027 39.6885 8.12027C38.5013 8.12027 37.5388 7.15782 37.5388 5.97057C37.5388 4.78332 38.5013 3.82086 39.6885 3.82086C40.8758 3.82086 41.8382 4.78332 41.8382 5.97057Z" fill="white"/>
</svg>
