<svg width="67" height="51" viewBox="0 0 67 51" fill="none" xmlns="http://www.w3.org/2000/svg">
<path d="M48.4135 32.3663C48.4135 40.6538 41.66 47.3722 33.3291 47.3722C24.9983 47.3722 18.2448 40.6538 18.2448 32.3663C18.2448 24.0788 24.9983 17.3604 33.3291 17.3604C41.66 17.3604 48.4135 24.0788 48.4135 32.3663Z" fill="#C4C4C4"/>
<path d="M29.9965 34.3157C29.0612 32.3027 29.9287 29.9188 31.9242 29.0013C33.9155 28.0858 36.2914 28.9784 37.2267 30.9914L56.948 41.9864L35.0822 36.4057C33.1363 37.1553 30.8973 36.2546 29.9965 34.3157Z" fill="#030104"/>
<path d="M10.0214 10.3342C16.2473 4.11316 24.5248 0.687134 33.3291 0.687134C42.1336 0.687134 50.4113 4.11316 56.637 10.3342C62.8628 16.5552 66.2913 24.8265 66.2913 33.6243C66.2913 39.3049 64.859 44.7642 62.17 49.5953H56.0092L51.5032 46.9954L53.4932 43.5511L59.2872 46.8941C61.3342 42.9117 62.4905 38.4005 62.4905 33.6243C62.4905 32.779 62.4521 31.9425 62.3813 31.1152L55.4727 32.3324L54.7815 28.4157L61.7714 27.1842C60.5224 21.6736 57.7062 16.751 53.8173 12.9101L49.0814 18.55L46.0324 15.9936L50.8042 10.3112C46.4286 7.02796 41.1022 4.94568 35.3191 4.55453V12.0975H31.3392V4.55453C25.556 4.94598 20.2297 7.02811 15.8538 10.3113L20.6259 15.9936L17.577 18.55L12.8409 12.9099C8.95217 16.751 6.13599 21.6736 4.88696 27.1841L11.8767 28.4159L11.1854 32.3323L4.27728 31.1149C4.20643 31.9424 4.16801 32.7787 4.16801 33.624C4.16801 38.4005 5.3239 42.9118 7.37118 46.8939L13.1654 43.5513L15.1552 46.9954L10.6493 49.595H4.48829C1.79906 44.7639 0.366989 39.3046 0.366989 33.624C0.366837 24.8263 3.79577 16.5549 10.0214 10.3342Z" fill="#030104"/>
</svg>
