<svg width="39" height="29" viewBox="0 0 39 29" fill="none" xmlns="http://www.w3.org/2000/svg">
<path d="M27.7939 18.1259C27.7939 22.8678 23.8871 26.7119 19.0679 26.7119C14.2487 26.7119 10.3419 22.8678 10.3419 18.1259C10.3419 13.384 14.2487 9.53996 19.0679 9.53996C23.8871 9.53996 27.7939 13.384 27.7939 18.1259Z" fill="#C4C4C4"/>
<path d="M17.1399 19.2413C16.5989 18.0895 17.1007 16.7256 18.2551 16.2006C19.407 15.6767 20.7814 16.1875 21.3224 17.3393L32.7308 23.6303L20.0819 20.4372C18.9562 20.8661 17.661 20.3507 17.1399 19.2413Z" fill="#030104"/>
<path d="M5.5849 5.51979C9.18646 1.96029 13.9748 1.52588e-05 19.0679 1.52588e-05C24.1612 1.52588e-05 28.9496 1.96029 32.5511 5.51979C36.1526 9.07929 38.1359 13.8119 38.1359 18.8457C38.1359 22.096 37.3074 25.2197 35.7518 27.9839H32.1879L29.5813 26.4963L30.7324 24.5256L34.0842 26.4383C35.2683 24.1597 35.9372 21.5785 35.9372 18.8457C35.9372 18.3621 35.915 17.8835 35.874 17.4101L31.8775 18.1066L31.4777 15.8655L35.5212 15.1609C34.7987 12.0079 33.1696 9.19133 30.9199 6.99363L28.1803 10.2206L26.4165 8.75795L29.1769 5.50661C26.6457 3.62805 23.5645 2.43663 20.2191 2.21283V6.52871H17.9168V2.21283C14.5714 2.43681 11.4902 3.62814 8.95886 5.5067L11.7194 8.75795L9.95567 10.2206L7.21596 6.99354C4.96638 9.19133 3.33728 12.0079 2.61475 15.1608L6.65817 15.8656L6.25827 18.1065L2.26206 17.4099C2.22107 17.8834 2.19884 18.3619 2.19884 18.8455C2.19884 21.5785 2.86751 24.1598 4.05182 26.4382L7.40364 24.5257L8.5547 26.4963L5.94817 27.9837H2.38412C0.828457 25.2195 3.43323e-05 22.0958 3.43323e-05 18.8455C-5.34058e-05 13.8118 1.98352 9.07912 5.5849 5.51979Z" fill="#030104"/>
</svg>
